<?xml version="1.0" encoding="utf-8"?>
<!-- Generator: Adobe Illustrator 27.0.0, SVG Export Plug-In . SVG Version: 6.00 Build 0)  -->
<svg version="1.1" id="Layer_1" xmlns="http://www.w3.org/2000/svg" xmlns:xlink="http://www.w3.org/1999/xlink" x="0px" y="0px"
	 viewBox="0 0 225 225" style="enable-background:new 0 0 225 225;" xml:space="preserve">
<style type="text/css">
	.st0{fill:#242A54;}
	.st1{fill:#2AB9EA;}
	.st2{fill:#232953;}
</style>
<g>
	<path class="st0" d="M154.8,0.2c10.4-0.1,20.7-0.1,31.1-0.2c1.9,2.6,1.2,5.5,1.2,8.3c0,61.7,0,123.4,0,185.1
		c0,20-11.2,31.3-31.3,31.5c-6.7,0.1-13.5-0.3-20.2,0.1c-5.7,0.4-7.8-1.1-7.6-7.2c0.5-11.1-0.1-22.3,0.2-33.4
		c0.1-4.8-1.6-6.4-6.3-6.2c-6.5,0.3-13,0.3-19.5,0c-4.6-0.2-5.9,1.8-5.6,6c0.2,4.4,0.2,8.8,0,13.2c-0.8,14.9-11.1,26-25.9,27.2
		c-9.5,0.7-19.2,0.1-28.8,0.4c-5,0.1-4.4-3-4.4-6.2c0-14.8,0-29.5,0-44.3c0-46.1,0-92.3,0-138.4c0-22.8,12.8-35.7,35.6-35.7
		c7.8,0,15.6,0.2,23.3,0.3c0.1,14.3,0.1,28.6,0.3,42.9c0,2.3-1.7,6.1,3.2,6.2c8.2,0.2,16.3,0.4,24.5,0.5c1.5,0,3.2,0,3.1-2.3
		c0.1-3.3,0.3-6.6,0.3-10C128.2,16.1,133.9,8.1,154.8,0.2z M67.7,128.4c0.1,3.9,2.9,3.6,5.5,3.5c7.8-0.1,15.5-0.2,23.3-0.2
		c0.2,7,0.3,14,0.5,20.9c0.1,2.2-0.6,4.6,2.6,5.7c16.3,5.4,30.2-3.9,29.5-20.9c-0.3-8.2,2.2-10,10-9.7c16.8,0.6,25.6-12.5,20.4-28.9
		c-0.9-2.8-2.8-2.7-4.8-2.7c-6.5,0-13-0.2-19.5,0c-4.3,0.2-6.1-1.3-5.9-5.8c0.3-6.5,0.1-13,0.1-19.4c0-2.3,0.1-4.5-3.1-5.4
		c-17.2-4.8-29.5,4.2-29.1,22.1c0.2,7.1-2.3,9.3-8.9,8.4c-2.3-0.3-4.7-0.2-7,0.1c-7.3,0.7-13.5,5.8-14.4,13.1
		C66,115.5,65.5,122.1,67.7,128.4z"/>
	<path class="st1" d="M67.7,128.4c-2.3-6.3-1.7-12.8-0.9-19.2c1-7.2,7.1-12.4,14.4-13.1c2.3-0.2,4.7-0.4,7-0.1
		c6.6,0.9,9.1-1.3,8.9-8.4c-0.4-18,11.9-26.9,29.1-22.1c3.2,0.9,3.1,3.1,3.1,5.4c0,6.5,0.2,13-0.1,19.4c-0.2,4.5,1.6,5.9,5.9,5.8
		c6.5-0.2,13-0.1,19.5,0c2,0,3.9-0.1,4.8,2.7c5.2,16.4-3.6,29.5-20.4,28.9c-7.8-0.3-10.3,1.6-10,9.7c0.6,17-13.2,26.4-29.5,20.9
		c-3.2-1.1-2.5-3.5-2.6-5.7c-0.2-7-0.4-13.9-0.5-20.9c0.1-5.1-3.8-3.8-6.6-3.8C82.5,127.9,75.1,128.2,67.7,128.4z"/>
	<path class="st2" d="M67.7,128.4c7.4-0.2,14.8-0.5,22.2-0.5c2.8,0,6.7-1.3,6.6,3.8c-7.8,0.1-15.5,0.2-23.3,0.2
		C70.7,132,67.8,132.3,67.7,128.4z"/>
</g>
</svg>
